<svg xmlns="http://www.w3.org/2000/svg" viewBox="0 0 28 28" width="28" height="28" fill="none"><path fill="currentColor" fill-rule="evenodd" clip-rule="evenodd" d="M10 4h1v2h6V4h1v2h2.5A2.5 2.5 0 0 1 23 8.5v11a2.5 2.5 0 0 1-2.5 2.5h-13A2.5 2.5 0 0 1 5 19.5v-11A2.5 2.5 0 0 1 7.5 6H10V4zm8 3H7.5C6.67 7 6 7.67 6 8.5v11c0 .83.67 1.5 1.5 1.5h13c.83 0 1.5-.67 1.5-1.5v-11c0-.83-.67-1.5-1.5-1.5H18zm-3 2h-2v2h2V9zm-7 4h2v2H8v-2zm12-4h-2v2h2V9zm-7 4h2v2h-2v-2zm-3 4H8v2h2v-2zm3 0h2v2h-2v-2zm7-4h-2v2h2v-2z"></path></svg>